<svg width="40" height="40" viewBox="0 0 40 40" fill="none" xmlns="http://www.w3.org/2000/svg">
<path opacity="0.3" d="M8.4665 13.3334H13.3832C13.9165 11.2501 14.6832 9.25007 15.6832 7.40007C12.6165 8.45007 10.0665 10.5667 8.4665 13.3334ZM12.4998 20.0001C12.4998 18.8667 12.5998 17.7667 12.7332 16.6667H7.09984C6.83317 17.7334 6.6665 18.8501 6.6665 20.0001C6.6665 21.1501 6.83317 22.2667 7.09984 23.3334H12.7332C12.5998 22.2334 12.4998 21.1334 12.4998 20.0001ZM8.4665 26.6667C10.0762 29.4514 12.6398 31.5591 15.6832 32.6001C14.6772 30.7236 13.9048 28.731 13.3832 26.6667H8.4665ZM19.9998 6.7334C18.6165 8.7334 17.5332 10.9501 16.8165 13.3334H23.1832C22.4665 10.9501 21.3832 8.7334 19.9998 6.7334ZM31.5332 13.3334C29.9185 10.5529 27.3567 8.44674 24.3165 7.40007C25.3165 9.25007 26.0832 11.2501 26.6165 13.3334H31.5332ZM19.9998 33.2667C21.3832 31.2667 22.4665 29.0501 23.1832 26.6667H16.8165C17.5332 29.0501 18.6165 31.2667 19.9998 33.2667ZM24.3165 32.6001C27.3567 31.5534 29.9185 29.4472 31.5332 26.6667H26.6165C26.0949 28.731 25.3225 30.7236 24.3165 32.6001ZM32.8998 16.6667H27.2665C27.3998 17.7667 27.4998 18.8667 27.4998 20.0001C27.4998 21.1334 27.3998 22.2334 27.2665 23.3334H32.8998C33.1665 22.2667 33.3332 21.1501 33.3332 20.0001C33.3332 18.8501 33.1665 17.7334 32.8998 16.6667ZM16.0998 16.6667C15.9498 17.7501 15.8332 18.8667 15.8332 20.0001C15.8332 21.1334 15.9498 22.2334 16.0998 23.3334H23.8998C24.0498 22.2334 24.1665 21.1334 24.1665 20.0001C24.1665 18.8667 24.0498 17.7501 23.8998 16.6667H16.0998Z" fill="#2A9135"/>
<path d="M19.9835 3.3335C10.7835 3.3335 3.3335 10.8002 3.3335 20.0002C3.3335 29.2002 10.7835 36.6668 19.9835 36.6668C29.2002 36.6668 36.6668 29.2002 36.6668 20.0002C36.6668 10.8002 29.2002 3.3335 19.9835 3.3335ZM31.5335 13.3335H26.6168C26.0952 11.2693 25.3228 9.27666 24.3168 7.40016C27.357 8.44683 29.9188 10.553 31.5335 13.3335ZM20.0002 6.7335C21.3835 8.7335 22.4668 10.9502 23.1835 13.3335H16.8168C17.5335 10.9502 18.6168 8.7335 20.0002 6.7335ZM7.10016 23.3335C6.8335 22.2668 6.66683 21.1502 6.66683 20.0002C6.66683 18.8502 6.8335 17.7335 7.10016 16.6668H12.7335C12.6002 17.7668 12.5002 18.8668 12.5002 20.0002C12.5002 21.1335 12.6002 22.2335 12.7335 23.3335H7.10016ZM8.46683 26.6668H13.3835C13.9168 28.7502 14.6835 30.7502 15.6835 32.6002C12.6401 31.5592 10.0766 29.4515 8.46683 26.6668ZM13.3835 13.3335H8.46683C10.0766 10.5488 12.6401 8.44111 15.6835 7.40016C14.6775 9.27666 13.9051 11.2693 13.3835 13.3335ZM20.0002 33.2668C18.6168 31.2668 17.5335 29.0502 16.8168 26.6668H23.1835C22.4668 29.0502 21.3835 31.2668 20.0002 33.2668ZM23.9002 23.3335H16.1002C15.9502 22.2335 15.8335 21.1335 15.8335 20.0002C15.8335 18.8668 15.9502 17.7502 16.1002 16.6668H23.9002C24.0502 17.7502 24.1668 18.8668 24.1668 20.0002C24.1668 21.1335 24.0502 22.2335 23.9002 23.3335ZM24.3168 32.6002C25.3168 30.7502 26.0835 28.7502 26.6168 26.6668H31.5335C29.9188 29.4473 27.357 31.5535 24.3168 32.6002ZM27.2668 23.3335C27.4002 22.2335 27.5002 21.1335 27.5002 20.0002C27.5002 18.8668 27.4002 17.7668 27.2668 16.6668H32.9002C33.1668 17.7335 33.3335 18.8502 33.3335 20.0002C33.3335 21.1502 33.1668 22.2668 32.9002 23.3335H27.2668Z" fill="#2A9135"/>
</svg>
